<mxfile host="app.diagrams.net" agent="Mozilla/5.0 (Windows NT 10.0; Win64; x64) AppleWebKit/537.36 (KHTML, like Gecko) Chrome/131.0.0.0 Safari/537.36 Edg/131.0.0.0" version="25.0.1">
  <diagram id="C5RBs43oDa-KdzZeNtuy" name="Page-1">
    <mxGraphModel dx="1853" dy="561" grid="1" gridSize="10" guides="1" tooltips="1" connect="1" arrows="1" fold="1" page="1" pageScale="1" pageWidth="827" pageHeight="1169" math="0" shadow="0">
      <root>
        <mxCell id="WIyWlLk6GJQsqaUBKTNV-0" />
        <mxCell id="WIyWlLk6GJQsqaUBKTNV-1" parent="WIyWlLk6GJQsqaUBKTNV-0" />
        <mxCell id="mvioNwK95yMqdUQ73LqQ-36" value="" style="swimlane;fontFamily=Sarabun;fontSource=https%3A%2F%2Ffonts.googleapis.com%2Fcss%3Ffamily%3DSarabun;" parent="WIyWlLk6GJQsqaUBKTNV-1" vertex="1">
          <mxGeometry x="-710" y="30" width="660" height="2470" as="geometry" />
        </mxCell>
        <mxCell id="mvioNwK95yMqdUQ73LqQ-35" value="&lt;font data-font-src=&quot;https://fonts.googleapis.com/css?family=Sarabun&quot; face=&quot;Sarabun&quot;&gt;Start&lt;/font&gt;" style="ellipse;whiteSpace=wrap;html=1;" parent="mvioNwK95yMqdUQ73LqQ-36" vertex="1">
          <mxGeometry x="255" y="40" width="130" height="30" as="geometry" />
        </mxCell>
        <mxCell id="QNhVIbcrn-Icenjs99R--4" style="edgeStyle=orthogonalEdgeStyle;rounded=0;orthogonalLoop=1;jettySize=auto;html=1;entryX=0.473;entryY=0.019;entryDx=0;entryDy=0;entryPerimeter=0;" parent="mvioNwK95yMqdUQ73LqQ-36" source="mvioNwK95yMqdUQ73LqQ-35" edge="1">
          <mxGeometry relative="1" as="geometry">
            <mxPoint x="320.3299999999999" y="111.71000000000004" as="targetPoint" />
          </mxGeometry>
        </mxCell>
        <mxCell id="pyJ5YHgMeb-XLVFXfpXM-3" style="edgeStyle=orthogonalEdgeStyle;rounded=0;orthogonalLoop=1;jettySize=auto;html=1;" edge="1" parent="mvioNwK95yMqdUQ73LqQ-36" source="pyJ5YHgMeb-XLVFXfpXM-0">
          <mxGeometry relative="1" as="geometry">
            <mxPoint x="320" y="200" as="targetPoint" />
          </mxGeometry>
        </mxCell>
        <mxCell id="pyJ5YHgMeb-XLVFXfpXM-0" value="Declare &amp;amp; Init&lt;div&gt;currElent = 0,size, *arr,&lt;/div&gt;&lt;div&gt;inputNum is int&lt;/div&gt;" style="rounded=0;whiteSpace=wrap;html=1;" vertex="1" parent="mvioNwK95yMqdUQ73LqQ-36">
          <mxGeometry x="230" y="110" width="180" height="60" as="geometry" />
        </mxCell>
        <mxCell id="pyJ5YHgMeb-XLVFXfpXM-7" style="edgeStyle=orthogonalEdgeStyle;rounded=0;orthogonalLoop=1;jettySize=auto;html=1;" edge="1" parent="mvioNwK95yMqdUQ73LqQ-36" source="pyJ5YHgMeb-XLVFXfpXM-2">
          <mxGeometry relative="1" as="geometry">
            <mxPoint x="320" y="320" as="targetPoint" />
          </mxGeometry>
        </mxCell>
        <mxCell id="pyJ5YHgMeb-XLVFXfpXM-2" value="Display : &quot;Enter number (-1 to stop):&quot;" style="shape=parallelogram;perimeter=parallelogramPerimeter;whiteSpace=wrap;html=1;fixedSize=1;" vertex="1" parent="mvioNwK95yMqdUQ73LqQ-36">
          <mxGeometry x="194.25" y="200" width="251.5" height="80" as="geometry" />
        </mxCell>
        <mxCell id="pyJ5YHgMeb-XLVFXfpXM-9" style="edgeStyle=orthogonalEdgeStyle;rounded=0;orthogonalLoop=1;jettySize=auto;html=1;" edge="1" parent="mvioNwK95yMqdUQ73LqQ-36" source="pyJ5YHgMeb-XLVFXfpXM-6">
          <mxGeometry relative="1" as="geometry">
            <mxPoint x="320" y="450" as="targetPoint" />
          </mxGeometry>
        </mxCell>
        <mxCell id="pyJ5YHgMeb-XLVFXfpXM-38" style="edgeStyle=orthogonalEdgeStyle;rounded=0;orthogonalLoop=1;jettySize=auto;html=1;entryX=0.5;entryY=0;entryDx=0;entryDy=0;" edge="1" parent="mvioNwK95yMqdUQ73LqQ-36" source="pyJ5YHgMeb-XLVFXfpXM-6" target="pyJ5YHgMeb-XLVFXfpXM-36">
          <mxGeometry relative="1" as="geometry" />
        </mxCell>
        <mxCell id="pyJ5YHgMeb-XLVFXfpXM-6" value="is True?" style="rhombus;whiteSpace=wrap;html=1;" vertex="1" parent="mvioNwK95yMqdUQ73LqQ-36">
          <mxGeometry x="280" y="320" width="80" height="80" as="geometry" />
        </mxCell>
        <mxCell id="pyJ5YHgMeb-XLVFXfpXM-11" style="edgeStyle=orthogonalEdgeStyle;rounded=0;orthogonalLoop=1;jettySize=auto;html=1;" edge="1" parent="mvioNwK95yMqdUQ73LqQ-36" source="pyJ5YHgMeb-XLVFXfpXM-8">
          <mxGeometry relative="1" as="geometry">
            <mxPoint x="320" y="540" as="targetPoint" />
          </mxGeometry>
        </mxCell>
        <mxCell id="pyJ5YHgMeb-XLVFXfpXM-8" value="Read inputNum" style="rounded=0;whiteSpace=wrap;html=1;" vertex="1" parent="mvioNwK95yMqdUQ73LqQ-36">
          <mxGeometry x="260" y="450" width="120" height="60" as="geometry" />
        </mxCell>
        <mxCell id="pyJ5YHgMeb-XLVFXfpXM-17" style="edgeStyle=orthogonalEdgeStyle;rounded=0;orthogonalLoop=1;jettySize=auto;html=1;" edge="1" parent="mvioNwK95yMqdUQ73LqQ-36" source="pyJ5YHgMeb-XLVFXfpXM-10">
          <mxGeometry relative="1" as="geometry">
            <mxPoint x="321" y="730" as="targetPoint" />
          </mxGeometry>
        </mxCell>
        <mxCell id="pyJ5YHgMeb-XLVFXfpXM-37" style="edgeStyle=orthogonalEdgeStyle;rounded=0;orthogonalLoop=1;jettySize=auto;html=1;entryX=0;entryY=0.5;entryDx=0;entryDy=0;" edge="1" parent="mvioNwK95yMqdUQ73LqQ-36" source="pyJ5YHgMeb-XLVFXfpXM-10" target="pyJ5YHgMeb-XLVFXfpXM-36">
          <mxGeometry relative="1" as="geometry" />
        </mxCell>
        <mxCell id="pyJ5YHgMeb-XLVFXfpXM-10" value="inputNum == -1 ?" style="rhombus;whiteSpace=wrap;html=1;" vertex="1" parent="mvioNwK95yMqdUQ73LqQ-36">
          <mxGeometry x="266" y="540" width="110" height="110" as="geometry" />
        </mxCell>
        <mxCell id="pyJ5YHgMeb-XLVFXfpXM-12" value="Yes" style="text;html=1;align=center;verticalAlign=middle;resizable=0;points=[];autosize=1;strokeColor=none;fillColor=none;" vertex="1" parent="mvioNwK95yMqdUQ73LqQ-36">
          <mxGeometry x="266" y="390" width="40" height="30" as="geometry" />
        </mxCell>
        <mxCell id="pyJ5YHgMeb-XLVFXfpXM-40" style="edgeStyle=orthogonalEdgeStyle;rounded=0;orthogonalLoop=1;jettySize=auto;html=1;" edge="1" parent="mvioNwK95yMqdUQ73LqQ-36" source="pyJ5YHgMeb-XLVFXfpXM-14">
          <mxGeometry relative="1" as="geometry">
            <mxPoint x="331" y="1580" as="targetPoint" />
          </mxGeometry>
        </mxCell>
        <mxCell id="pyJ5YHgMeb-XLVFXfpXM-14" value="Display &quot;Index = &quot;" style="shape=parallelogram;perimeter=parallelogramPerimeter;whiteSpace=wrap;html=1;fixedSize=1;" vertex="1" parent="mvioNwK95yMqdUQ73LqQ-36">
          <mxGeometry x="271" y="1460" width="120" height="60" as="geometry" />
        </mxCell>
        <mxCell id="pyJ5YHgMeb-XLVFXfpXM-16" value="No" style="text;html=1;align=center;verticalAlign=middle;resizable=0;points=[];autosize=1;strokeColor=none;fillColor=none;" vertex="1" parent="mvioNwK95yMqdUQ73LqQ-36">
          <mxGeometry x="360" y="300" width="40" height="30" as="geometry" />
        </mxCell>
        <mxCell id="pyJ5YHgMeb-XLVFXfpXM-18" value="No" style="text;html=1;align=center;verticalAlign=middle;resizable=0;points=[];autosize=1;strokeColor=none;fillColor=none;" vertex="1" parent="mvioNwK95yMqdUQ73LqQ-36">
          <mxGeometry x="260" y="640" width="40" height="30" as="geometry" />
        </mxCell>
        <mxCell id="pyJ5YHgMeb-XLVFXfpXM-22" style="edgeStyle=orthogonalEdgeStyle;rounded=0;orthogonalLoop=1;jettySize=auto;html=1;entryX=0.5;entryY=0;entryDx=0;entryDy=0;" edge="1" parent="mvioNwK95yMqdUQ73LqQ-36" source="pyJ5YHgMeb-XLVFXfpXM-19" target="pyJ5YHgMeb-XLVFXfpXM-21">
          <mxGeometry relative="1" as="geometry" />
        </mxCell>
        <mxCell id="pyJ5YHgMeb-XLVFXfpXM-30" style="edgeStyle=orthogonalEdgeStyle;rounded=0;orthogonalLoop=1;jettySize=auto;html=1;" edge="1" parent="mvioNwK95yMqdUQ73LqQ-36" source="pyJ5YHgMeb-XLVFXfpXM-19">
          <mxGeometry relative="1" as="geometry">
            <mxPoint x="330" y="1060" as="targetPoint" />
            <Array as="points">
              <mxPoint x="460" y="790" />
              <mxPoint x="460" y="1060" />
            </Array>
          </mxGeometry>
        </mxCell>
        <mxCell id="pyJ5YHgMeb-XLVFXfpXM-19" value="currElement == size ??" style="rhombus;whiteSpace=wrap;html=1;" vertex="1" parent="mvioNwK95yMqdUQ73LqQ-36">
          <mxGeometry x="252" y="730" width="139" height="120" as="geometry" />
        </mxCell>
        <mxCell id="pyJ5YHgMeb-XLVFXfpXM-21" value="add more size for store element" style="rounded=0;whiteSpace=wrap;html=1;" vertex="1" parent="mvioNwK95yMqdUQ73LqQ-36">
          <mxGeometry x="236.5" y="910" width="170" height="90" as="geometry" />
        </mxCell>
        <mxCell id="pyJ5YHgMeb-XLVFXfpXM-25" value="add inputNum to arr" style="rounded=0;whiteSpace=wrap;html=1;" vertex="1" parent="mvioNwK95yMqdUQ73LqQ-36">
          <mxGeometry x="231.5" y="1130" width="180" height="90" as="geometry" />
        </mxCell>
        <mxCell id="pyJ5YHgMeb-XLVFXfpXM-26" value="Yes" style="text;html=1;align=center;verticalAlign=middle;resizable=0;points=[];autosize=1;strokeColor=none;fillColor=none;" vertex="1" parent="mvioNwK95yMqdUQ73LqQ-36">
          <mxGeometry x="266" y="860" width="40" height="30" as="geometry" />
        </mxCell>
        <mxCell id="pyJ5YHgMeb-XLVFXfpXM-35" style="edgeStyle=orthogonalEdgeStyle;rounded=0;orthogonalLoop=1;jettySize=auto;html=1;entryX=0.5;entryY=0;entryDx=0;entryDy=0;" edge="1" parent="mvioNwK95yMqdUQ73LqQ-36" source="pyJ5YHgMeb-XLVFXfpXM-31" target="pyJ5YHgMeb-XLVFXfpXM-25">
          <mxGeometry relative="1" as="geometry" />
        </mxCell>
        <mxCell id="pyJ5YHgMeb-XLVFXfpXM-31" value="" style="ellipse;whiteSpace=wrap;html=1;aspect=fixed;" vertex="1" parent="mvioNwK95yMqdUQ73LqQ-36">
          <mxGeometry x="311" y="1050" width="20" height="20" as="geometry" />
        </mxCell>
        <mxCell id="pyJ5YHgMeb-XLVFXfpXM-32" value="" style="edgeStyle=orthogonalEdgeStyle;rounded=0;orthogonalLoop=1;jettySize=auto;html=1;" edge="1" parent="mvioNwK95yMqdUQ73LqQ-36" source="pyJ5YHgMeb-XLVFXfpXM-21" target="pyJ5YHgMeb-XLVFXfpXM-31">
          <mxGeometry relative="1" as="geometry">
            <mxPoint x="-388.5" y="1120" as="targetPoint" />
            <mxPoint x="-388" y="1030" as="sourcePoint" />
          </mxGeometry>
        </mxCell>
        <mxCell id="pyJ5YHgMeb-XLVFXfpXM-39" style="edgeStyle=orthogonalEdgeStyle;rounded=0;orthogonalLoop=1;jettySize=auto;html=1;entryX=0.5;entryY=0;entryDx=0;entryDy=0;" edge="1" parent="mvioNwK95yMqdUQ73LqQ-36" source="pyJ5YHgMeb-XLVFXfpXM-36" target="pyJ5YHgMeb-XLVFXfpXM-14">
          <mxGeometry relative="1" as="geometry">
            <Array as="points">
              <mxPoint x="500" y="1410" />
            </Array>
          </mxGeometry>
        </mxCell>
        <mxCell id="pyJ5YHgMeb-XLVFXfpXM-36" value="" style="ellipse;whiteSpace=wrap;html=1;aspect=fixed;" vertex="1" parent="mvioNwK95yMqdUQ73LqQ-36">
          <mxGeometry x="490" y="585" width="20" height="20" as="geometry" />
        </mxCell>
        <mxCell id="pyJ5YHgMeb-XLVFXfpXM-41" value="No" style="text;html=1;align=center;verticalAlign=middle;resizable=0;points=[];autosize=1;strokeColor=none;fillColor=none;" vertex="1" parent="mvioNwK95yMqdUQ73LqQ-36">
          <mxGeometry x="376" y="730" width="40" height="30" as="geometry" />
        </mxCell>
        <mxCell id="pyJ5YHgMeb-XLVFXfpXM-42" value="Yes" style="text;html=1;align=center;verticalAlign=middle;resizable=0;points=[];autosize=1;strokeColor=none;fillColor=none;" vertex="1" parent="mvioNwK95yMqdUQ73LqQ-36">
          <mxGeometry x="371.5" y="550" width="40" height="30" as="geometry" />
        </mxCell>
        <mxCell id="pyJ5YHgMeb-XLVFXfpXM-45" style="edgeStyle=orthogonalEdgeStyle;rounded=0;orthogonalLoop=1;jettySize=auto;html=1;" edge="1" parent="mvioNwK95yMqdUQ73LqQ-36" source="pyJ5YHgMeb-XLVFXfpXM-43">
          <mxGeometry relative="1" as="geometry">
            <mxPoint x="330" y="1700" as="targetPoint" />
          </mxGeometry>
        </mxCell>
        <mxCell id="pyJ5YHgMeb-XLVFXfpXM-43" value="Display whole of index of array" style="shape=parallelogram;perimeter=parallelogramPerimeter;whiteSpace=wrap;html=1;fixedSize=1;" vertex="1" parent="mvioNwK95yMqdUQ73LqQ-36">
          <mxGeometry x="270" y="1580" width="120" height="60" as="geometry" />
        </mxCell>
        <mxCell id="pyJ5YHgMeb-XLVFXfpXM-46" style="edgeStyle=orthogonalEdgeStyle;rounded=0;orthogonalLoop=1;jettySize=auto;html=1;" edge="1" parent="mvioNwK95yMqdUQ73LqQ-36" source="pyJ5YHgMeb-XLVFXfpXM-44">
          <mxGeometry relative="1" as="geometry">
            <mxPoint x="326" y="1860" as="targetPoint" />
          </mxGeometry>
        </mxCell>
        <mxCell id="pyJ5YHgMeb-XLVFXfpXM-44" value="Display whole of number that user input" style="shape=parallelogram;perimeter=parallelogramPerimeter;whiteSpace=wrap;html=1;fixedSize=1;" vertex="1" parent="mvioNwK95yMqdUQ73LqQ-36">
          <mxGeometry x="266" y="1700" width="120" height="60" as="geometry" />
        </mxCell>
        <mxCell id="pyJ5YHgMeb-XLVFXfpXM-48" value="&lt;font data-font-src=&quot;https://fonts.googleapis.com/css?family=Sarabun&quot; face=&quot;Sarabun&quot;&gt;Start&lt;/font&gt;" style="ellipse;whiteSpace=wrap;html=1;" vertex="1" parent="mvioNwK95yMqdUQ73LqQ-36">
          <mxGeometry x="261" y="1860" width="130" height="30" as="geometry" />
        </mxCell>
      </root>
    </mxGraphModel>
  </diagram>
</mxfile>
